# xmcd
#
# Track frame offsets:
#  150
#  16195
#  35597
#  51170
#  64842
#  83982
#  97295
#  114367
#  126535
#  143550
#  161545
#  175747
#
# Disc length: 2542 seconds
#
# Revision: 0
# Processed by: cddbd v1.5.1PL2 Copyright (c) Steve Scherf et al.
# Submitted via: Collectorz.com_Music_Collector 6.10
#
DISCID=a209ec0c
DTITLE=Leslie Cheung - 張國榮精粹金曲 [CD3)
DYEAR=1992
DGENRE=Pop Canton
TTITLE0=張國榮 - 梅艷芳 - 緣份
TTITLE1=當年情
TTITLE2=默默向上游
TTITLE3=闖進新領域
TTITLE4=人生的鼓手
TTITLE5=全身都是愛
TTITLE6=儂本多情
TTITLE7=始終會行運
TTITLE8=迷路
TTITLE9=情到濃時
TTITLE10=讓我消失去
TTITLE11=我走我路
EXTD=
EXTT0=
EXTT1=
EXTT2=
EXTT3=
EXTT4=
EXTT5=
EXTT6=
EXTT7=
EXTT8=
EXTT9=
EXTT10=
EXTT11=
PLAYORDER=
